<svg width="122" height="18" viewBox="0 0 122 18" fill="none" xmlns="http://www.w3.org/2000/svg">
<path d="M5.59 17V2.96H0.442V0.255999H14.222V2.96H9.1V17H5.59ZM23.268 17.26C17.8426 17.26 15.13 14.4087 15.13 8.706C15.13 5.638 15.8146 3.41933 17.184 2.05C18.5533 0.680665 20.5813 -0.00400114 23.268 -0.00400114C25.9546 -0.00400114 27.9826 0.680665 29.352 2.05C30.7213 3.41933 31.406 5.638 31.406 8.706C31.406 14.4087 28.6933 17.26 23.268 17.26ZM23.268 14.27C24.8453 14.27 25.998 13.8193 26.726 12.918C27.4713 11.9993 27.844 10.5953 27.844 8.706C27.844 6.60867 27.4713 5.13533 26.726 4.286C25.998 3.41933 24.8453 2.986 23.268 2.986C21.6906 2.986 20.5293 3.41933 19.784 4.286C19.056 5.13533 18.692 6.60867 18.692 8.706C18.692 10.5953 19.056 11.9993 19.784 12.918C20.5293 13.8193 21.6906 14.27 23.268 14.27ZM33.855 17V0.255999H40.875C43.3884 0.255999 45.2777 0.905999 46.543 2.206C47.8257 3.48867 48.467 5.65533 48.467 8.706C48.467 11.5833 47.8344 13.6893 46.569 15.024C45.321 16.3413 43.423 17 40.875 17H33.855ZM37.365 14.296H40.381C41.369 14.296 42.201 14.1487 42.877 13.854C43.553 13.542 44.0557 12.9873 44.385 12.19C44.7317 11.3753 44.905 10.214 44.905 8.706C44.905 7.198 44.749 6.04533 44.437 5.248C44.125 4.45067 43.6397 3.90467 42.981 3.61C42.3224 3.31533 41.4557 3.168 40.381 3.168H37.365V14.296ZM58.5355 17.26C53.1102 17.26 50.3975 14.4087 50.3975 8.706C50.3975 5.638 51.0822 3.41933 52.4515 2.05C53.8209 0.680665 55.8489 -0.00400114 58.5355 -0.00400114C61.2222 -0.00400114 63.2502 0.680665 64.6195 2.05C65.9889 3.41933 66.6735 5.638 66.6735 8.706C66.6735 14.4087 63.9609 17.26 58.5355 17.26ZM58.5355 14.27C60.1129 14.27 61.2655 13.8193 61.9935 12.918C62.7389 11.9993 63.1115 10.5953 63.1115 8.706C63.1115 6.60867 62.7389 5.13533 61.9935 4.286C61.2655 3.41933 60.1129 2.986 58.5355 2.986C56.9582 2.986 55.7969 3.41933 55.0515 4.286C54.3235 5.13533 53.9595 6.60867 53.9595 8.706C53.9595 10.5953 54.3235 11.9993 55.0515 12.918C55.7969 13.8193 56.9582 14.27 58.5355 14.27ZM74.8355 17V0.255999H78.3455V14.296H86.5875V17H74.8355ZM88.5211 17V0.255999H92.0311V17H88.5211ZM100.196 17.26C99.121 17.26 98.1157 17.182 97.1797 17.026C96.261 16.87 95.4637 16.6447 94.7877 16.35V13.256C95.5503 13.568 96.3737 13.8193 97.2577 14.01C98.1417 14.2007 99.0083 14.296 99.8577 14.296C101.071 14.296 101.964 14.1833 102.536 13.958C103.108 13.7327 103.394 13.2213 103.394 12.424C103.394 11.9213 103.272 11.5227 103.03 11.228C102.787 10.9333 102.362 10.6733 101.756 10.448C101.166 10.2053 100.326 9.93667 99.2337 9.642C97.483 9.15667 96.2523 8.55 95.5417 7.822C94.831 7.094 94.4757 6.08867 94.4757 4.806C94.4757 3.26333 95.039 2.076 96.1657 1.244C97.2923 0.411999 98.9303 -0.00400114 101.08 -0.00400114C102.085 -0.00400114 103.021 0.0653323 103.888 0.203999C104.754 0.342666 105.456 0.507333 105.994 0.697999V3.792C104.572 3.25467 103.09 2.986 101.548 2.986C100.456 2.986 99.5977 3.10733 98.9737 3.35C98.3497 3.57533 98.0377 4.06067 98.0377 4.806C98.0377 5.23933 98.1503 5.586 98.3757 5.846C98.601 6.106 98.9823 6.34 99.5197 6.548C100.074 6.756 100.846 6.99 101.834 7.25C103.203 7.614 104.26 8.04733 105.006 8.55C105.751 9.05267 106.262 9.62467 106.54 10.266C106.834 10.9073 106.982 11.6267 106.982 12.424C106.982 13.88 106.427 15.05 105.318 15.934C104.208 16.818 102.501 17.26 100.196 17.26ZM112.738 17V2.96H107.59V0.255999H121.37V2.96H116.248V17H112.738Z" fill="#252525"/>
</svg>
